<svg width="1024" height="500" viewBox="0 0 1024 500" fill="none" xmlns="http://www.w3.org/2000/svg">
  <defs>
    <linearGradient id="bg" x1="88" y1="42" x2="930" y2="458" gradientUnits="userSpaceOnUse">
      <stop stop-color="#3B0815"/>
      <stop offset="0.42" stop-color="#6D1325"/>
      <stop offset="1" stop-color="#16070C"/>
    </linearGradient>
    <radialGradient id="glowLeft" cx="0" cy="0" r="1" gradientUnits="userSpaceOnUse" gradientTransform="translate(199 118) rotate(41.3099) scale(332.429 241.149)">
      <stop stop-color="#F3D58C" stop-opacity="0.34"/>
      <stop offset="1" stop-color="#F3D58C" stop-opacity="0"/>
    </radialGradient>
    <radialGradient id="glowRight" cx="0" cy="0" r="1" gradientUnits="userSpaceOnUse" gradientTransform="translate(817 385) rotate(-145.491) scale(375.711 247.356)">
      <stop stop-color="#E8C766" stop-opacity="0.24"/>
      <stop offset="1" stop-color="#E8C766" stop-opacity="0"/>
    </radialGradient>
    <linearGradient id="glassStroke" x1="259" y1="91" x2="749" y2="421" gradientUnits="userSpaceOnUse">
      <stop stop-color="#FFF6DA" stop-opacity="0.48"/>
      <stop offset="1" stop-color="#FFF6DA" stop-opacity="0.08"/>
    </linearGradient>
    <linearGradient id="cardTop" x1="0" y1="0" x2="1" y2="1">
      <stop stop-color="#FFFDF6" stop-opacity="0.96"/>
      <stop offset="1" stop-color="#F4E9D2" stop-opacity="0.88"/>
    </linearGradient>
    <linearGradient id="cardAccent" x1="0" y1="0" x2="1" y2="1">
      <stop stop-color="#B68C2B"/>
      <stop offset="1" stop-color="#F3D98A"/>
    </linearGradient>
    <filter id="shadowSoft" x="132" y="24" width="760" height="452" filterUnits="userSpaceOnUse" color-interpolation-filters="sRGB">
      <feFlood flood-opacity="0" result="BackgroundImageFix"/>
      <feColorMatrix in="SourceAlpha" type="matrix" values="0 0 0 0 0 0 0 0 0 0 0 0 0 0 0 0 0 0 127 0" result="hardAlpha"/>
      <feOffset dy="24"/>
      <feGaussianBlur stdDeviation="36"/>
      <feColorMatrix type="matrix" values="0 0 0 0 0.05 0 0 0 0 0.01 0 0 0 0 0.02 0 0 0 0.38 0"/>
      <feBlend mode="normal" in2="BackgroundImageFix" result="effect1_dropShadow_1_1"/>
      <feBlend mode="normal" in="SourceGraphic" in2="effect1_dropShadow_1_1" result="shape"/>
    </filter>
  </defs>
  <rect width="1024" height="500" rx="28" fill="url(#bg)"/>
  <rect width="1024" height="500" rx="28" fill="url(#glowLeft)"/>
  <rect width="1024" height="500" rx="28" fill="url(#glowRight)"/>
  <path d="M73 412C164 335.099 287.179 294.889 442 319.978C613.771 347.813 689.927 268.773 959 117" stroke="#F9E8B0" stroke-opacity="0.12" stroke-width="1.5"/>
  <path d="M90 447C219.204 331.888 344.281 291.754 471 316.979C647.283 352.067 771.162 278.457 952 173" stroke="#F9E8B0" stroke-opacity="0.08" stroke-width="1.5"/>

  <g filter="url(#shadowSoft)">
    <rect x="204" y="62" width="616" height="376" rx="34" fill="#FFFFFF" fill-opacity="0.08"/>
    <rect x="204.75" y="62.75" width="614.5" height="374.5" rx="33.25" stroke="url(#glassStroke)" stroke-width="1.5"/>
  </g>

  <rect x="240" y="91" width="350" height="318" rx="30" fill="#2B0E17" fill-opacity="0.52" stroke="#FAEFC7" stroke-opacity="0.16"/>
  <rect x="606" y="91" width="178" height="149" rx="26" fill="url(#cardTop)"/>
  <rect x="606" y="255" width="178" height="154" rx="26" fill="#FFF9ED" fill-opacity="0.94"/>

  <rect x="274" y="126" width="116" height="30" rx="15" fill="#F9E8B0" fill-opacity="0.14" stroke="#F9E8B0" stroke-opacity="0.18"/>
  <text x="332" y="145" fill="#F4E6BF" font-family="Arial, Helvetica, sans-serif" font-size="12" font-weight="700" letter-spacing="2.8" text-anchor="middle">CATHOLIC DAILY</text>

  <text x="274" y="210" fill="#FFFDF7" font-family="Arial, Helvetica, sans-serif" font-size="48" font-weight="700">Daily Readings</text>
  <text x="274" y="256" fill="#EADDBD" font-family="Arial, Helvetica, sans-serif" font-size="22" font-weight="400">Beautiful liturgy. Prayerful Scripture.</text>
  <text x="274" y="288" fill="#EADDBD" font-family="Arial, Helvetica, sans-serif" font-size="22" font-weight="400">Offline access for everyday devotion.</text>

  <rect x="274" y="323" width="148" height="52" rx="18" fill="url(#cardAccent)"/>
  <text x="348" y="355" fill="#461018" font-family="Arial, Helvetica, sans-serif" font-size="18" font-weight="700" text-anchor="middle">Catholic Missal</text>

  <rect x="438" y="323" width="118" height="52" rx="18" fill="#FFF6DB" fill-opacity="0.11" stroke="#F8E8B6" stroke-opacity="0.18"/>
  <text x="497" y="355" fill="#FAEFCB" font-family="Arial, Helvetica, sans-serif" font-size="17" font-weight="600" text-anchor="middle">Liturgical</text>

  <g transform="translate(621 110)">
    <rect width="148" height="111" rx="22" fill="#FFFDF6"/>
    <rect x="17" y="17" width="114" height="77" rx="20" fill="#8C1D2F"/>
    <path d="M74 20L79.5 86L145.5 80.5L101.5 124.5L156.5 168.5L90.5 157.5L74 223.5L57.5 157.5L-8.5 168.5L46.5 124.5L2.5 80.5L68.5 86L74 20Z" fill="#D4AF37" fill-opacity="0.12" transform="scale(0.42) translate(86 28)"/>
    <path d="M74 166C25.812 166 -7.8 182.8 -7.8 182.8V70.8C-7.8 70.8 25.812 48.4 74 70.8C122.188 48.4 155.8 70.8 155.8 70.8V182.8C155.8 182.8 122.188 166 74 166Z" fill="#FDFCF0" transform="scale(0.42) translate(86 28)"/>
    <path d="M-7.8 70.8C25.812 48.4 74 70.8 74 70.8V182.8C25.812 182.8 -7.8 199.6 -7.8 199.6V70.8Z" fill="#FFFFFF" transform="scale(0.42) translate(86 28)"/>
    <path d="M74 70.8V182.8" stroke="#EAE6D8" stroke-width="6" transform="scale(0.42) translate(86 28)"/>
    <rect x="67.5" y="24" width="13" height="48" rx="4.5" fill="#D4AF37"/>
    <rect x="52" y="36" width="44" height="12" rx="4.5" fill="#D4AF37"/>
    <text x="74" y="96" fill="#5A101C" font-family="Arial, Helvetica, sans-serif" font-size="12" font-weight="700" text-anchor="middle">Daily</text>
    <text x="74" y="110" fill="#8C1D2F" font-family="Arial, Helvetica, sans-serif" font-size="12" font-weight="700" text-anchor="middle">Readings</text>
  </g>

  <g transform="translate(622 271)">
    <text x="0" y="16" fill="#8C1D2F" font-family="Arial, Helvetica, sans-serif" font-size="13" font-weight="700" letter-spacing="2">TODAY</text>
    <text x="0" y="45" fill="#2B231A" font-family="Arial, Helvetica, sans-serif" font-size="28" font-weight="700">Friday of Lent</text>
    <rect x="0" y="62" width="94" height="28" rx="14" fill="#F4E8C7"/>
    <text x="47" y="80" fill="#6B4E2A" font-family="Arial, Helvetica, sans-serif" font-size="12" font-weight="700" text-anchor="middle">Season · Week 4</text>
    <rect x="102" y="62" width="58" height="28" rx="14" fill="#FDECEE"/>
    <text x="131" y="80" fill="#8C1D2F" font-family="Arial, Helvetica, sans-serif" font-size="12" font-weight="700" text-anchor="middle">Year II</text>
    <rect x="0" y="109" width="146" height="10" rx="5" fill="#EEE2CA"/>
    <rect x="0" y="128" width="129" height="10" rx="5" fill="#EEE2CA"/>
    <rect x="0" y="147" width="118" height="10" rx="5" fill="#EEE2CA"/>
  </g>

  <circle cx="900" cy="100" r="42" fill="#FFF5D7" fill-opacity="0.08"/>
  <circle cx="900" cy="100" r="27" fill="#FFF5D7" fill-opacity="0.07"/>
  <path d="M900 73V127" stroke="#F3D98A" stroke-opacity="0.66" stroke-width="2.5" stroke-linecap="round"/>
  <path d="M873 100H927" stroke="#F3D98A" stroke-opacity="0.66" stroke-width="2.5" stroke-linecap="round"/>

  <text x="75" y="448" fill="#E7D8AF" font-family="Arial, Helvetica, sans-serif" font-size="16" font-weight="600" letter-spacing="1.5">FEATURE GRAPHIC · 1024 × 500</text>
</svg>
